<?xml version="1.0" encoding="UTF-8"?>
<svg version="1.1" xmlns="http://www.w3.org/2000/svg" width="500" height="500">
<path d="M0 0 C165 0 330 0 500 0 C500 165 500 330 500 500 C335 500 170 500 0 500 C0 335 0 170 0 0 Z " fill="#FEFEFE" transform="translate(0,0)"/>
<path d="M0 0 C1.12159012 -0.0127597 2.24318024 -0.02551941 3.39875793 -0.03866577 C4.61125717 -0.04089142 5.82375641 -0.04311707 7.07299805 -0.04541016 C8.94304756 -0.05539536 8.94304756 -0.05539536 10.85087585 -0.06558228 C13.4913864 -0.07571756 16.13148539 -0.08126323 18.77197266 -0.08007812 C21.47536967 -0.07991552 24.17808953 -0.09380297 26.88134766 -0.12109375 C30.77877535 -0.15774294 34.6754152 -0.16755164 38.57299805 -0.17041016 C40.38263786 -0.19196671 40.38263786 -0.19196671 42.22883606 -0.21395874 C43.92540596 -0.20472885 43.92540596 -0.20472885 45.65625 -0.1953125 C46.64647659 -0.19816254 47.63670319 -0.20101257 48.65693665 -0.20394897 C54.90327197 0.87401364 59.04730254 5.5493802 63.27709961 9.96118164 C63.81786636 10.51611298 64.35863312 11.07104431 64.91578674 11.64279175 C66.08163986 12.8395236 67.24535163 14.03834462 68.40711212 15.23904991 C70.25124883 17.14147193 72.10475528 19.03426308 73.96160889 20.92427063 C79.23812111 26.2950541 84.5106191 31.66929177 89.74438477 37.08178711 C92.95422087 40.39982404 96.18585847 43.69521348 99.43270111 46.9770298 C100.66090091 48.22679635 101.88088701 49.48469291 103.0921402 50.75089073 C110.27716753 58.79959983 110.27716753 58.79959983 119.97827148 62.55175781 C121.49490957 62.51237296 123.01160743 62.43124552 124.5222168 62.29052734 C125.58311523 62.34781006 126.64401367 62.40509277 127.73706055 62.46411133 C128.63553711 62.48803955 129.53401367 62.51196777 130.4597168 62.53662109 C131.45616211 62.56949219 132.45260742 62.60236328 133.47924805 62.63623047 C135.53900343 62.69836686 137.59891434 62.75551464 139.65893555 62.80810547 C140.64506836 62.84226563 141.63120117 62.87642578 142.6472168 62.91162109 C143.53666992 62.93667725 144.42612305 62.9617334 145.3425293 62.98754883 C147.5222168 63.29052734 147.5222168 63.29052734 149.5222168 65.29052734 C149.56689453 68.19580078 149.56689453 68.19580078 149.26831055 71.89990234 C149.2158165 72.56423279 149.16332245 73.22856323 149.10923767 73.9130249 C148.53703514 80.79636913 147.73748053 87.65320325 146.84765625 94.50195312 C146.57960424 96.58016506 146.32516493 98.6597896 146.07104492 100.73974609 C145.90063249 102.07448537 145.72943934 103.40912526 145.55737305 104.74365234 C145.4066333 105.93120117 145.25589355 107.11875 145.10058594 108.34228516 C144.5222168 111.29052734 144.5222168 111.29052734 142.5222168 114.29052734 C139.5734286 115.38598913 136.6884344 115.43793205 133.56445312 115.50146484 C128.01755103 115.64288896 122.47984282 115.87645403 116.9375 116.14111328 C114.55990468 116.23971654 112.18101289 116.31125591 109.80175781 116.35400391 C97.70225212 116.59394941 87.82984333 116.86619745 78.7096405 125.53076172 C75.95338521 128.46750031 73.34573057 131.47594135 70.88432312 134.6640625 C69.5222168 136.29052734 69.5222168 136.29052734 67.5222168 137.29052734 C68.49718613 137.31336288 69.47215546 137.33619843 70.47666931 137.35972595 C79.64464414 137.57508887 88.81248434 137.79553537 97.98021603 138.02101803 C102.69394755 138.13678836 107.4077087 138.2507387 112.12158203 138.3605957 C116.66687935 138.46658994 121.21203987 138.57727858 125.75714302 138.69128609 C127.4951222 138.73404307 129.23314454 138.77508019 130.97120476 138.81440544 C133.39711681 138.86958191 135.82280632 138.93075645 138.24853516 138.9934082 C139.33717865 139.0160675 139.33717865 139.0160675 140.44781494 139.03918457 C145.40816464 139.17647518 145.40816464 139.17647518 146.5222168 140.29052734 C146.7722168 142.72802734 146.7722168 142.72802734 146.5222168 145.29052734 C143.29430125 147.44247104 142.2382087 147.49139177 138.5222168 147.29052734 C139.1822168 148.28052734 139.8422168 149.27052734 140.5222168 150.29052734 C140.9597168 153.16552734 140.9597168 153.16552734 140.5222168 156.29052734 C138.06627555 159.61327138 136.5965524 161.06670743 132.5222168 161.91552734 C128.40932412 161.0586747 126.92534748 159.71316802 124.5222168 156.29052734 C124.59035831 152.27017811 124.6398993 150.17284484 127.5222168 147.29052734 C106.4022168 147.29052734 85.2822168 147.29052734 63.5222168 147.29052734 C64.1822168 148.28052734 64.8422168 149.27052734 65.5222168 150.29052734 C65.9597168 153.16552734 65.9597168 153.16552734 65.5222168 156.29052734 C63.03619231 159.65397224 61.60796156 161.09110484 57.4597168 161.85302734 C54.5222168 161.29052734 54.5222168 161.29052734 52.1472168 159.79052734 C50.16743106 156.74470313 49.95587268 154.77221257 50.1159668 151.19677734 C50.7242707 148.34242826 52.24191375 147.00075463 54.5222168 145.29052734 C53.7178418 144.67177734 52.9134668 144.05302734 52.0847168 143.41552734 C49.5222168 141.29052734 49.5222168 141.29052734 48.5222168 139.29052734 C48.53583252 137.98035645 48.54944824 136.67018555 48.56347656 135.3203125 C47.82196825 128.35796347 42.67130706 124.4262651 37.86206055 119.81396484 C36.87206531 118.83638306 35.88377607 117.85707091 34.89710999 116.87612915 C32.30208531 114.30587058 29.68355756 111.76091271 27.05957031 109.22027588 C24.41492091 106.65018759 21.79543942 104.05471539 19.17260742 101.46240234 C7.91309575 90.31175851 7.91309575 90.31175851 -3.85632324 79.70808411 C-6.03296232 77.80516358 -7.99144225 75.75912274 -9.9152832 73.60302734 C-10.90334961 72.51441406 -10.90334961 72.51441406 -11.91137695 71.40380859 C-14.6049975 67.76977189 -14.61360473 64.23822851 -14.68652344 59.80688477 C-14.70581406 58.70861862 -14.72510468 57.61035248 -14.74497986 56.47880554 C-14.80287182 51.4684089 -14.85197299 46.45815167 -14.8828125 41.44750977 C-14.90441679 38.80642643 -14.93854756 36.16541516 -14.98535156 33.5246582 C-15.05230643 29.71061326 -15.07980397 25.8980456 -15.09887695 22.08349609 C-15.12670761 20.90724167 -15.15453827 19.73098724 -15.18321228 18.51908875 C-15.16980231 13.16515298 -15.14384047 9.34175332 -11.62646484 5.1159668 C-7.93157546 1.4598394 -5.22438258 0.04031887 0 0 Z " fill="#FE7E00" transform="translate(182.477783203125,119.70947265625)"/>
<path d="M0 0 C6.82897671 0.08938451 13.94881151 0.67209817 20.3125 3.25 C24.3743949 8.30715956 26.3517062 14.08216361 28.5625 20.125 C28.92601562 21.09953125 29.28953125 22.0740625 29.6640625 23.078125 C30.55377095 25.46628978 31.43634586 27.85683661 32.3125 30.25 C33.62650536 30.28425331 33.62650536 30.28425331 34.96705627 30.31919861 C43.33343244 30.53764901 51.69975472 30.75804818 60.06602573 30.98049068 C64.36438483 31.09471064 68.66275942 31.20824741 72.96118164 31.32006836 C83.37921405 31.59147838 93.79675071 31.8758008 104.21366119 32.18752289 C106.20968603 32.24693949 108.20576353 32.3045788 110.20184326 32.36212158 C113.49833756 32.46089316 116.79400901 32.57288837 120.08984375 32.69140625 C121.48874596 32.73164162 121.48874596 32.73164162 122.91590881 32.77268982 C129.08118291 33.01868291 129.08118291 33.01868291 131.3125 35.25 C131.35717773 38.15527344 131.35717773 38.15527344 131.05859375 41.859375 C131.0060997 42.52370544 130.95360565 43.18803589 130.89952087 43.87249756 C130.32731834 50.75584179 129.52776374 57.61267591 128.63793945 64.46142578 C128.36988745 66.53963771 128.11544813 68.61926226 127.86132812 70.69921875 C127.69091569 72.03395803 127.51972255 73.36859792 127.34765625 74.703125 C127.1969165 75.89067383 127.04617676 77.07822266 126.89086914 78.30175781 C126.3125 81.25 126.3125 81.25 124.3125 84.25 C121.3637118 85.34546179 118.4787176 85.3974047 115.35473633 85.4609375 C109.80783423 85.60236162 104.27012602 85.83592669 98.7277832 86.10058594 C96.35018788 86.1991892 93.97129609 86.27072856 91.59204102 86.31347656 C79.49253533 86.55342207 69.62012653 86.8256701 60.49992371 95.49023438 C57.74366842 98.42697297 55.13601378 101.43541401 52.67460632 104.62353516 C51.3125 106.25 51.3125 106.25 49.3125 107.25 C50.28746933 107.27283554 51.26243866 107.29567108 52.26695251 107.31919861 C61.43492734 107.53456153 70.60276754 107.75500803 79.77049923 107.98049068 C84.48423075 108.09626102 89.1979919 108.21021136 93.91186523 108.32006836 C98.45716256 108.42606259 103.00232308 108.53675123 107.54742622 108.65075874 C109.28540541 108.69351572 111.02342774 108.73455285 112.76148796 108.7738781 C115.18740002 108.82905456 117.61308952 108.89022911 120.03881836 108.95288086 C121.12746185 108.97554016 121.12746185 108.97554016 122.23809814 108.99865723 C127.19844784 109.13594784 127.19844784 109.13594784 128.3125 110.25 C128.5625 112.6875 128.5625 112.6875 128.3125 115.25 C125.08458445 117.4019437 124.02849191 117.45086443 120.3125 117.25 C121.3025 118.735 121.3025 118.735 122.3125 120.25 C122.75 123.125 122.75 123.125 122.3125 126.25 C119.85655875 129.57274404 118.3868356 131.02618008 114.3125 131.875 C110.19960733 131.01814736 108.71563068 129.67264067 106.3125 126.25 C106.38064151 122.22965076 106.4301825 120.1323175 109.3125 117.25 C88.1925 117.25 67.0725 117.25 45.3125 117.25 C46.3025 118.735 46.3025 118.735 47.3125 120.25 C47.75 123.125 47.75 123.125 47.3125 126.25 C44.82647551 129.61344489 43.39824477 131.05057749 39.25 131.8125 C36.3125 131.25 36.3125 131.25 33.9375 129.75 C31.95771426 126.70417578 31.74615589 124.73168523 31.90625 121.15625 C32.5145539 118.30190092 34.03219696 116.96022728 36.3125 115.25 C35.508125 114.63125 34.70375 114.0125 33.875 113.375 C31.3125 111.25 31.3125 111.25 30.3125 109.25 C29.94709153 104.86509841 29.85001644 102.25905505 31.6875 98.25 C35.42565482 93.97782306 39.78647939 90.6531529 44.3125 87.25 C42.45457627 80.76344743 40.35050596 74.45753982 37.87109375 68.18359375 C37.54772537 67.35438416 37.22435699 66.52517456 36.89118958 65.6708374 C35.13040671 61.16406265 33.34450651 56.66762846 31.54785156 52.17504883 C30.81637109 50.34093107 30.08557276 48.50654111 29.35546875 46.671875 C28.99728058 45.7723259 28.63909241 44.87277679 28.27005005 43.94596863 C26.21459595 38.72493837 24.38108209 33.50559997 22.73828125 28.140625 C19.95924074 17.58714379 19.95924074 17.58714379 12.96240234 9.86962891 C7.76254805 7.97021258 2.6188352 7.35709831 -2.89672852 7.33398438 C-4.6875 7.25 -4.6875 7.25 -5.6875 6.25 C-5.8125 3.75 -5.8125 3.75 -5.6875 1.25 C-4.05315539 -0.38434461 -2.25689987 0.03953693 0 0 Z " fill="#2D2523" transform="translate(200.6875,149.75)"/>
<path d="M0 0 C2.9040858 0.53149447 3.85684893 1.0158193 5.73046875 3.23828125 C6.36984375 4.31078125 7.00921875 5.38328125 7.66796875 6.48828125 C8.03019531 7.08898437 8.39242187 7.6896875 8.765625 8.30859375 C11.38120743 14.62675391 10.2853882 22.76266339 8.04296875 29.05078125 C6.07851063 33.30480148 4.05592167 35.55758197 -0.33203125 37.48828125 C-4.55035103 38.27921621 -5.92005739 37.76293049 -9.51953125 35.36328125 C-13.44058479 32.05793033 -15.15840458 27.92422078 -15.765625 22.90234375 C-15.77445035 14.34175124 -15.389751 8.69142339 -10.03125 1.8203125 C-6.99583167 -0.55917635 -3.71353639 -0.09320633 0 0 Z " fill="#F9F9F9" transform="translate(217.33203125,308.51171875)"/>
<path d="M0 0 C2.3125 0.375 2.3125 0.375 3.3125 1.375 C4.18630197 7.5690393 3.95697375 12.15534438 0.25 17.3125 C-0.31847656 18.00214844 -0.88695312 18.69179688 -1.47265625 19.40234375 C-2.87115628 21.2563338 -2.87115628 21.2563338 -2.59375 23.25390625 C-0.88910895 27.24364803 1.53201887 30.8229177 3.81640625 34.5 C5.3125 37.375 5.3125 37.375 5.3125 41.375 C2.15277493 41.08322359 1.31394457 40.37664228 -0.828125 37.94140625 C-1.52421875 36.95011719 -2.2203125 35.95882812 -2.9375 34.9375 C-3.99710937 33.45443359 -3.99710937 33.45443359 -5.078125 31.94140625 C-6.6875 29.375 -6.6875 29.375 -6.6875 27.375 C-7.3475 27.375 -8.0075 27.375 -8.6875 27.375 C-8.831875 28.65375 -8.97625 29.9325 -9.125 31.25 C-9.39392746 33.63192894 -9.60976346 35.21952691 -10.6875 37.375 C-15.5625 36.5 -15.5625 36.5 -16.6875 35.375 C-16.78763609 33.28839056 -16.81831208 31.19838486 -16.8203125 29.109375 C-16.82160156 27.82675781 -16.82289063 26.54414063 -16.82421875 25.22265625 C-16.82212402 24.54992676 -16.8200293 23.87719727 -16.81787109 23.18408203 C-16.81255839 21.14738382 -16.81779697 19.11090973 -16.82421875 17.07421875 C-16.82292969 15.78644531 -16.82164062 14.49867188 -16.8203125 13.171875 C-16.81918457 11.98948242 -16.81805664 10.80708984 -16.81689453 9.58886719 C-16.70155322 6.7240501 -16.34695609 4.15820594 -15.6875 1.375 C-13.7075 1.87 -13.7075 1.87 -11.6875 2.375 C-11.3575 7.325 -11.0275 12.275 -10.6875 17.375 C-10.11 15.498125 -9.5325 13.62125 -8.9375 11.6875 C-5.25142966 0.73275763 -5.25142966 0.73275763 0 0 Z " fill="#2F2C2D" transform="translate(296.6875,309.625)"/>
<path d="M0 0 C3.3125 0.9375 3.3125 0.9375 6.3125 2.9375 C6.3125 3.5975 6.3125 4.2575 6.3125 4.9375 C5.095625 4.81375 3.87875 4.69 2.625 4.5625 C-1.04987091 4.58197811 -1.53555875 4.80581759 -4.5 7.375 C-7.19342585 11.16945465 -8.47141226 15.48839852 -9.6875 19.9375 C-7.72696649 18.81633864 -5.76913875 17.69044469 -3.8125 16.5625 C-2.72195312 15.93601562 -1.63140625 15.30953125 -0.5078125 14.6640625 C2.32483343 13.08108549 2.32483343 13.08108549 4.3125 10.9375 C7.4375 10.8125 7.4375 10.8125 10.3125 10.9375 C10.3397415 12.35405793 10.35900467 13.77077045 10.375 15.1875 C10.38660156 15.97640625 10.39820313 16.7653125 10.41015625 17.578125 C10.31635306 19.84441002 9.94491063 21.7663895 9.3125 23.9375 C10.3025 23.9375 11.2925 23.9375 12.3125 23.9375 C11.9825 24.9275 11.6525 25.9175 11.3125 26.9375 C10.69375 27.06382812 10.075 27.19015625 9.4375 27.3203125 C7.09812899 27.76242581 7.09812899 27.76242581 5.75 30.1171875 C5.275625 31.00664062 4.80125 31.89609375 4.3125 32.8125 C2.3891789 36.39782141 0.85897004 38.8412338 -2.6875 40.9375 C-5.9375 41.125 -5.9375 41.125 -8.6875 40.9375 C-8.58737603 36.03142561 -7.85593467 33.66543783 -4.375 30.125 C-1.97292234 27.84797628 0.29658288 26.30231901 3.3125 24.9375 C3.3125 22.2975 3.3125 19.6575 3.3125 16.9375 C2.73242188 17.4428125 2.15234375 17.948125 1.5546875 18.46875 C-4.82987096 23.77867981 -4.82987096 23.77867981 -9.0625 24.5625 C-12.00634772 23.86158388 -12.86639986 23.29798757 -14.6875 20.9375 C-15.33722854 14.84186501 -13.13979989 9.78938093 -9.6875 4.9375 C-6.75243719 1.51043244 -4.70478464 -0.07974211 0 0 Z " fill="#312E2E" transform="translate(185.6875,308.0625)"/>
<path d="M0 0 C2.125 0.375 2.125 0.375 4 1 C5.47892707 7.23262122 6.55946702 13.44467277 7.4921875 19.78125 C7.95152649 22.69275255 8.50875738 25.55591479 9.125 28.4375 C9.87258823 32.01774674 10.19334687 35.32640953 10 39 C8.02 39.495 8.02 39.495 6 40 C2.88303339 35.66335081 2.44033187 32.19591612 2 27 C-0.97 27.33 -3.94 27.66 -7 28 C-7.28875 29.258125 -7.5775 30.51625 -7.875 31.8125 C-8.57303539 34.8539399 -9.20446585 36.30669878 -11 39 C-11.66 39 -12.32 39 -13 39 C-7.18823529 7.18823529 -7.18823529 7.18823529 0 0 Z " fill="#302C2D" transform="translate(264,308)"/>
<path d="M0 0 C2.9040858 0.53149447 3.85684893 1.0158193 5.73046875 3.23828125 C6.36984375 4.31078125 7.00921875 5.38328125 7.66796875 6.48828125 C8.03019531 7.08898437 8.39242187 7.6896875 8.765625 8.30859375 C11.38120743 14.62675391 10.2853882 22.76266339 8.04296875 29.05078125 C6.07851063 33.30480148 4.05592167 35.55758197 -0.33203125 37.48828125 C-4.55035103 38.27921621 -5.92005739 37.76293049 -9.51953125 35.36328125 C-13.44058479 32.05793033 -15.15840458 27.92422078 -15.765625 22.90234375 C-15.77445035 14.34175124 -15.389751 8.69142339 -10.03125 1.8203125 C-6.99583167 -0.55917635 -3.71353639 -0.09320633 0 0 Z M-3.33203125 1.48828125 C-8.59481164 7.2954872 -10.95268348 13.47909755 -10.6953125 21.30859375 C-9.94116698 25.83346689 -7.55489673 29.26541577 -4.33203125 32.48828125 C-1.41710575 33.07210085 -1.41710575 33.07210085 1.66796875 32.48828125 C4.77436459 29.38188541 7.37587045 25.81218097 7.93359375 21.375 C7.88820249 14.98617952 7.51549527 9.72476072 3.29296875 4.61328125 C0.90679037 2.68161304 -0.33724029 1.8210358 -3.33203125 1.48828125 Z " fill="#302C2D" transform="translate(217.33203125,308.51171875)"/>
<path d="M0 0 C2.8100346 1.79363911 4.50940468 3.01880935 6 6 C6.1328125 7.875 6.1328125 7.875 6.125 10 C6.12886719 11.051875 6.12886719 11.051875 6.1328125 12.125 C6 14 6 14 5 16 C3 16.66666667 1 17.33333333 -1 18 C-1.33 18.66 -1.66 19.32 -2 20 C-5.1875 20.375 -5.1875 20.375 -9 20 C-12.01066181 17.43773463 -13.59121046 15.83955295 -14.4453125 11.99609375 C-14.65541713 8.30525566 -14.10705321 6.16771669 -12.125 3.0625 C-8.49059499 -0.46501074 -4.90782663 -0.7051475 0 0 Z " fill="#FDFBF9" transform="translate(196,134)"/>
<path d="M0 0 C1.17046875 0.02707031 2.3409375 0.05414063 3.546875 0.08203125 C4.43890625 0.11683594 5.3309375 0.15164062 6.25 0.1875 C-6.41666667 15.52083333 -6.41666667 15.52083333 -11.75 18.1875 C-0.2 18.5175 11.35 18.8475 23.25 19.1875 C23.25 19.5175 23.25 19.8475 23.25 20.1875 C17.02035385 20.21279951 10.79072088 20.23034549 4.56103516 20.24243164 C2.44058741 20.24746872 0.32014315 20.25429859 -1.80029297 20.26293945 C-4.84343322 20.27503234 -7.88652766 20.28073447 -10.9296875 20.28515625 C-11.88181122 20.29031754 -12.83393494 20.29547882 -13.81491089 20.30079651 C-14.69567291 20.30087204 -15.57643494 20.30094757 -16.48388672 20.30102539 C-17.64970779 20.30435631 -17.64970779 20.30435631 -18.83908081 20.30775452 C-20.75 20.1875 -20.75 20.1875 -22.75 19.1875 C-23.109375 16.51171875 -23.109375 16.51171875 -22.75 13.1875 C-20.84405141 11.14070301 -19.20469042 9.64326344 -17 8 C-16.46117187 7.57525391 -15.92234375 7.15050781 -15.3671875 6.71289062 C-13.84340081 5.51801887 -12.29719379 4.35190361 -10.75 3.1875 C-10.1003125 2.59710938 -9.450625 2.00671875 -8.78125 1.3984375 C-5.82670939 -0.36292325 -3.40000994 -0.1020003 0 0 Z " fill="#EB8017" transform="translate(261.75,238.8125)"/>
<path d="M0 0 C0.33 0.99 0.66 1.98 1 3 C-0.60256108 3.50512244 -2.20711792 4.00391627 -3.8125 4.5 C-4.70582031 4.7784375 -5.59914063 5.056875 -6.51953125 5.34375 C-9 6 -9 6 -12 6 C-11.98839844 7.31613281 -11.97679687 8.63226563 -11.96484375 9.98828125 C-11.85471891 28.08316867 -11.85471891 28.08316867 -13 37 C-13.99 37 -14.98 37 -16 37 C-19.3143749 27.47117215 -17.95109987 17.88464505 -17 8 C-17.68707031 8.09539062 -18.37414062 8.19078125 -19.08203125 8.2890625 C-19.98308594 8.39992188 -20.88414062 8.51078125 -21.8125 8.625 C-22.70582031 8.74101562 -23.59914063 8.85703125 -24.51953125 8.9765625 C-27 9 -27 9 -30 7 C-30 6.34 -30 5.68 -30 5 C-25.71 4.34 -21.42 3.68 -17 3 C-17 2.34 -17 1.68 -17 1 C-11.30494264 0.3583034 -5.73266804 -0.12462322 0 0 Z " fill="#3B3839" transform="translate(332,308)"/>
<path d="M0 0 C2.33944736 0.28730055 4.6739143 0.61936779 7 1 C6.67 3.64 6.34 6.28 6 9 C5.34 9 4.68 9 4 9 C3.67 7.68 3.34 6.36 3 5 C-3.27344065 12.594165 -4.49256985 20.31279285 -4 30 C-3.56645435 32.84715499 -3.56645435 32.84715499 -3 35 C1.92028801 33.63325333 3.34487447 31.21157843 6 27 C6.66 27 7.32 27 8 27 C8 27.99 8 28.98 8 30 C7.34 30 6.68 30 6 30 C5.7525 30.7425 5.505 31.485 5.25 32.25 C3.86273607 35.30198066 2.69305063 36.9994481 0 39 C-3.34067701 39.08351693 -4.69515229 38.23893469 -7.3125 36.1875 C-10.86722665 29.47301633 -9.44712842 20.70349076 -7.83984375 13.46484375 C-6.23165614 8.74500012 -3.56276661 3.56276661 0 0 Z " fill="#2F2C2C" transform="translate(242,307)"/>
<path d="M0 0 C4.29 0 8.58 0 13 0 C13 4.62 13 9.24 13 14 C8.71 14 4.42 14 0 14 C0 9.38 0 4.76 0 0 Z " fill="#F07802" transform="translate(267,187)"/>
<path d="M0 0 C0.66 0 1.32 0 2 0 C3.32 0 4.64 0 6 0 C6 0.66 6 1.32 6 2 C5.34 2 4.68 2 4 2 C4.03480469 2.97582031 4.06960938 3.95164062 4.10546875 4.95703125 C4.13253906 6.22933594 4.15960938 7.50164062 4.1875 8.8125 C4.22230469 10.07707031 4.25710938 11.34164063 4.29296875 12.64453125 C4 16 4 16 2.71875 17.9375 C-0.07057782 19.66181174 -2.8165247 19.18019672 -6 19 C-6.33 18.01 -6.66 17.02 -7 16 C-4.69 16 -2.38 16 0 16 C0 15.01 0 14.02 0 13 C-0.763125 13.0825 -1.52625 13.165 -2.3125 13.25 C-5 13 -5 13 -6.8125 11.375 C-8.33264845 8.3347031 -8.42888292 6.35958291 -8 3 C-5.86219945 -0.37547455 -3.79739128 -0.29210702 0 0 Z " fill="#343031" transform="translate(330,360)"/>
<path d="M0 0 C1.588125 -0.061875 3.17625 -0.12375 4.8125 -0.1875 C6.15248047 -0.23970703 6.15248047 -0.23970703 7.51953125 -0.29296875 C10 0 10 0 11.80078125 1.2578125 C14.00560699 4.4609144 13.36130502 7.20629727 13 11 C9.77208445 13.1519437 8.71599191 13.20086443 5 13 C4.67 14.32 4.34 15.64 4 17 C4.66 17 5.32 17 6 17 C6 17.66 6 18.32 6 19 C4.02 19 2.04 19 0 19 C0 12.73 0 6.46 0 0 Z " fill="#403C3D" transform="translate(283,360)"/>
<path d="M0 0 C4.29 0 8.58 0 13 0 C13 4.29 13 8.58 13 13 C8.71 13 4.42 13 0 13 C0 8.71 0 4.42 0 0 Z " fill="#F6810D" transform="translate(283,203)"/>
<path d="M0 0 C4.29 0 8.58 0 13 0 C13 4.29 13 8.58 13 13 C8.71 13 4.42 13 0 13 C0 8.71 0 4.42 0 0 Z " fill="#F67B01" transform="translate(267,203)"/>
<path d="M0 0 C4.29 0 8.58 0 13 0 C13 4.29 13 8.58 13 13 C8.71 13 4.42 13 0 13 C0 8.71 0 4.42 0 0 Z " fill="#F67B01" transform="translate(251,203)"/>
<path d="M0 0 C4.29 0 8.58 0 13 0 C13 4.29 13 8.58 13 13 C8.71 13 4.42 13 0 13 C0 8.71 0 4.42 0 0 Z " fill="#FD7E00" transform="translate(251,187)"/>
<path d="M0 0 C8.94320044 -0.61441835 8.94320044 -0.61441835 12.6875 1.5625 C14.56186454 5.04346271 13.97303562 7.2468626 13 11 C11 13 11 13 7.875 13.125 C6.92625 13.08375 5.9775 13.0425 5 13 C4.67 14.32 4.34 15.64 4 17 C4.66 17 5.32 17 6 17 C6 17.66 6 18.32 6 19 C4.02 19 2.04 19 0 19 C0 18.34 0 17.68 0 17 C0.66 17 1.32 17 2 17 C2 12.05 2 7.1 2 2 C1.34 2 0.68 2 0 2 C0 1.34 0 0.68 0 0 Z " fill="#3D393A" transform="translate(267,360)"/>
<path d="M0 0 C2.4375 0.1875 2.4375 0.1875 3.4375 1.1875 C4.19716558 8.38564268 3.64427631 13.27172082 -0.5625 19.1875 C-2.5425 18.8575 -4.5225 18.5275 -6.5625 18.1875 C-6.706875 17.424375 -6.85125 16.66125 -7 15.875 C-7.5257594 13.10577092 -7.5257594 13.10577092 -8.5625 10.1875 C-7.85546875 8.21484375 -7.85546875 8.21484375 -6.75 6.125 C-6.39292969 5.43277344 -6.03585937 4.74054688 -5.66796875 4.02734375 C-4.01816814 1.28156252 -3.27640525 0.23973697 0 0 Z " fill="#302D2D" transform="translate(296.5625,309.8125)"/>
<path d="M0 0 C4.29 0 8.58 0 13 0 C13 3.96 13 7.92 13 12 C9.1273408 12.9681648 5.96388638 13.07622858 2 13 C-0.24828052 8.50343896 -0.16682272 4.92127034 0 0 Z " fill="#FD7E00" transform="translate(251,219)"/>
<path d="M0 0 C4.29 0 8.58 0 13 0 C13 3.96 13 7.92 13 12 C8.71 12 4.42 12 0 12 C0 8.04 0 4.08 0 0 Z " fill="#FF7F00" transform="translate(283,188)"/>
<path d="M0 0 C0 4.29 0 8.58 0 13 C-4.29 13 -8.58 13 -13 13 C-13.60150376 5.90225564 -13.60150376 5.90225564 -11 2 C-6.97020535 -0.68652977 -4.76065969 -0.40344574 0 0 Z " fill="#F7F6F5" transform="translate(312,203)"/>
<path d="M0 0 C4.29 0 8.58 0 13 0 C13 3.63 13 7.26 13 11 C6.565 11.495 6.565 11.495 0 12 C0 8.04 0 4.08 0 0 Z " fill="#FE8004" transform="translate(267,219)"/>
<path d="M0 0 C0 3.63 0 7.26 0 11 C-6.435 11.495 -6.435 11.495 -13 12 C-13 8.37 -13 4.74 -13 1 C-8.60563789 0.14256349 -4.47427924 -0.08948558 0 0 Z " fill="#FDFDFD" transform="translate(296,218)"/>
<path d="M0 0 C3.96 0 7.92 0 12 0 C12 4.29 12 8.58 12 13 C9.69 13 7.38 13 5 13 C4.16209211 11.21046815 3.32980604 9.41830305 2.5 7.625 C1.80390625 6.12839844 1.80390625 6.12839844 1.09375 4.6015625 C0 2 0 2 0 0 Z " fill="#FC7D00" transform="translate(236,187)"/>
<path d="M0 0 C2 1 2 1 4 3 C3.86230302 7.95709111 1.23211811 10.53138544 -2 14 C-4.70879335 15.35439668 -7.00933268 15.06501451 -10 15 C-9.89813708 10.00871681 -9.13115917 7.70106302 -5.5625 4.125 C-3.72700526 2.41595897 -2.24300889 1.12150444 0 0 Z " fill="#3B3738" transform="translate(187,334)"/>
<path d="M0 0 C3.63 0 7.26 0 11 0 C10.67 3.96 10.34 7.92 10 12 C6.7 12 3.4 12 0 12 C0 8.04 0 4.08 0 0 Z " fill="#F3F2F2" transform="translate(315,189)"/>
<path d="M0 0 C4.29 0 8.58 0 13 0 C13 2.97 13 5.94 13 9 C8.71 9 4.42 9 0 9 C0 6.03 0 3.06 0 0 Z " fill="#FBFBFB" transform="translate(299,219)"/>
<path d="M0 0 C1.51400391 0.01740234 1.51400391 0.01740234 3.05859375 0.03515625 C4.07050781 0.04417969 5.08242187 0.05320312 6.125 0.0625 C7.29869141 0.07990234 7.29869141 0.07990234 8.49609375 0.09765625 C8.49609375 1.74765625 8.49609375 3.39765625 8.49609375 5.09765625 C7.83609375 5.09765625 7.17609375 5.09765625 6.49609375 5.09765625 C6.16609375 4.43765625 5.83609375 3.77765625 5.49609375 3.09765625 C3.51609375 3.09765625 1.53609375 3.09765625 -0.50390625 3.09765625 C-0.50390625 4.08765625 -0.50390625 5.07765625 -0.50390625 6.09765625 C0.13417969 6.37480469 0.77226562 6.65195312 1.4296875 6.9375 C2.25597656 7.29972656 3.08226562 7.66195313 3.93359375 8.03515625 C4.75730469 8.39480469 5.58101562 8.75445312 6.4296875 9.125 C8.49609375 10.09765625 8.49609375 10.09765625 9.49609375 11.09765625 C9.68359375 13.53515625 9.68359375 13.53515625 9.49609375 16.09765625 C7.49609375 18.09765625 7.49609375 18.09765625 3.62109375 18.22265625 C2.24594958 18.18605545 0.87093225 18.14434888 -0.50390625 18.09765625 C-1.82390625 18.09765625 -3.14390625 18.09765625 -4.50390625 18.09765625 C-4.50390625 15.78765625 -4.50390625 13.47765625 -4.50390625 11.09765625 C-3.84390625 11.09765625 -3.18390625 11.09765625 -2.50390625 11.09765625 C-2.17390625 12.41765625 -1.84390625 13.73765625 -1.50390625 15.09765625 C0.80609375 15.09765625 3.11609375 15.09765625 5.49609375 15.09765625 C5.82609375 14.10765625 6.15609375 13.11765625 6.49609375 12.09765625 C5.86960938 11.83210938 5.243125 11.5665625 4.59765625 11.29296875 C3.78039062 10.93976563 2.963125 10.5865625 2.12109375 10.22265625 C1.30898437 9.87460937 0.496875 9.5265625 -0.33984375 9.16796875 C-2.50390625 8.09765625 -2.50390625 8.09765625 -4.50390625 6.09765625 C-3.77826013 0.14735804 -3.77826013 0.14735804 0 0 Z " fill="#393636" transform="translate(231.50390625,354.90234375)"/>
<path d="M0 0 C5.33333333 -0.35555556 5.33333333 -0.35555556 7.875 1 C9.70488947 4.25313684 9.18128355 7.31390109 9 11 C9.66 11 10.32 11 11 11 C11 11.66 11 12.32 11 13 C10.195625 12.814375 9.39125 12.62875 8.5625 12.4375 C7.716875 12.293125 6.87125 12.14875 6 12 C5.67 12.33 5.34 12.66 5 13 C2 13.125 2 13.125 -1 13 C-2 12 -2 12 -2.0625 9.4375 C-2.041875 8.633125 -2.02125 7.82875 -2 7 C1.08809695 5.23537317 2.23312136 5 6 5 C5.67 4.34 5.34 3.68 5 3 C3.02 3 1.04 3 -1 3 C-0.67 2.01 -0.34 1.02 0 0 Z " fill="#5E5B5C" transform="translate(183,360)"/>
<path d="M0 0 C2.97 0 5.94 0 9 0 C8.67 4.29 8.34 8.58 8 13 C5.36 13 2.72 13 0 13 C0 8.71 0 4.42 0 0 Z " fill="#F4F4F4" transform="translate(315,203)"/>
<path d="M0 0 C0.99 0 1.98 0 3 0 C3.33 1.98 3.66 3.96 4 6 C4.763125 5.773125 5.52625 5.54625 6.3125 5.3125 C9 5 9 5 10.625 6.15625 C12.40392082 8.54162109 12.49601577 10.23864288 12.6875 13.1875 C12.78611328 14.53908203 12.78611328 14.53908203 12.88671875 15.91796875 C12.92410156 16.60503906 12.96148437 17.29210937 13 18 C12.01 18 11.02 18 10 18 C9.67 15.03 9.34 12.06 9 9 C7.68 8.67 6.36 8.34 5 8 C3.03177114 9.96822886 3.33751619 13.34808709 3 16 C3.66 16 4.32 16 5 16 C5 16.66 5 17.32 5 18 C3.02 18 1.04 18 -1 18 C-1 17.34 -1 16.68 -1 16 C-0.34 16 0.32 16 1 16 C0.67 10.72 0.34 5.44 0 0 Z " fill="#413E3E" transform="translate(244,355)"/>
<path d="M0 0 C4.29 0 8.58 0 13 0 C13 1.32 13 2.64 13 4 C12.34 4 11.68 4 11 4 C11 3.34 11 2.68 11 2 C8.69 2 6.38 2 4 2 C4 3.98 4 5.96 4 8 C5.98 8 7.96 8 10 8 C10 8.66 10 9.32 10 10 C8.02 10 6.04 10 4 10 C4 11.98 4 13.96 4 16 C4.99 16 5.98 16 7 16 C7 16.66 7 17.32 7 18 C4.69 18 2.38 18 0 18 C0 17.34 0 16.68 0 16 C0.66 16 1.32 16 2 16 C2 11.05 2 6.1 2 1 C1.34 0.67 0.68 0.34 0 0 Z " fill="#343031" transform="translate(165,355)"/>
<path d="M0 0 C2.64 0 5.28 0 8 0 C8 3.96 8 7.92 8 12 C6.02 12 4.04 12 2 12 C1.34 8.04 0.68 4.08 0 0 Z " fill="#F7F6F6" transform="translate(304,188)"/>
<path d="M0 0 C1.65 0 3.3 0 5 0 C7.60018816 3.90028225 7.15085514 7.47434569 7 12 C4.69 12 2.38 12 0 12 C0 8.04 0 4.08 0 0 Z " fill="#FB8108" transform="translate(299,188)"/>
<path d="M0 0 C1.62463842 -0.05395478 3.24978541 -0.09277195 4.875 -0.125 C5.77992188 -0.14820313 6.68484375 -0.17140625 7.6171875 -0.1953125 C10 0 10 0 12 2 C12.1953125 4.1640625 12.1953125 4.1640625 12.125 6.625 C12.10695313 7.44226563 12.08890625 8.25953125 12.0703125 9.1015625 C12.03550781 10.04128906 12.03550781 10.04128906 12 11 C12.66 11 13.32 11 14 11 C14 11.66 14 12.32 14 13 C12.68 13 11.36 13 10 13 C9.67 9.7 9.34 6.4 9 3 C7.68 3 6.36 3 5 3 C5 6.3 5 9.6 5 13 C3.35 13 1.7 13 0 13 C0 12.34 0 11.68 0 11 C0.66 11 1.32 11 2 11 C2 8.03 2 5.06 2 2 C1.34 2 0.68 2 0 2 C0 1.34 0 0.68 0 0 Z " fill="#343131" transform="translate(306,360)"/>
<path d="M0 0 C3.0625 0.1875 3.0625 0.1875 5.0625 2.1875 C4.73278521 5.48464793 4.4398161 6.8101839 2.0625 9.1875 C-2.49305556 8.63194444 -2.49305556 8.63194444 -3.9375 7.1875 C-4.0625 4.1875 -4.0625 4.1875 -3.9375 1.1875 C-2.9375 0.1875 -2.9375 0.1875 0 0 Z " fill="#E1E0E0" transform="translate(314.9375,268.8125)"/>
<path d="M0 0 C0.66 0.66 1.32 1.32 2 2 C1.67028521 5.29714793 1.3773161 6.6226839 -1 9 C-5.55555556 8.44444444 -5.55555556 8.44444444 -7 7 C-7.04080783 5.00041636 -7.04254356 2.99954746 -7 1 C-4.48718205 -0.25640898 -2.78302919 -0.20872719 0 0 Z " fill="#E8E8E8" transform="translate(243,269)"/>
<path d="M0 0 C2.33944736 0.28730055 4.6739143 0.61936779 7 1 C6.67 1.99 6.34 2.98 6 4 C4.35 3.67 2.7 3.34 1 3 C1 3.66 1 4.32 1 5 C4.465 6.485 4.465 6.485 8 8 C7.125 11.875 7.125 11.875 6 13 C3.32941149 13.14115161 0.67567762 13.04247107 -2 13 C-1.67 11.68 -1.34 10.36 -1 9 C0.98 9.66 2.96 10.32 5 11 C5 10.01 5 9.02 5 8 C3.824375 7.7834375 3.824375 7.7834375 2.625 7.5625 C0 7 0 7 -2 6 C-1.125 1.125 -1.125 1.125 0 0 Z " fill="#4A4748" transform="translate(198,360)"/>
<path d="M0 0 C4.55555556 0.55555556 4.55555556 0.55555556 6 2 C6.1875 4.4375 6.1875 4.4375 6 7 C5.34 7.66 4.68 8.32 4 9 C-0.55555556 8.44444444 -0.55555556 8.44444444 -2 7 C-2.1875 4.5625 -2.1875 4.5625 -2 2 C-1.34 1.34 -0.68 0.68 0 0 Z " fill="#F3F2F2" transform="translate(326,362)"/>
<path d="M0 0 C2.31 0 4.62 0 7 0 C6.67 2.97 6.34 5.94 6 9 C4.02 9 2.04 9 0 9 C0 6.03 0 3.06 0 0 Z " fill="#EFEEEE" transform="translate(315,218)"/>
<path d="M0 0 C2.625 0.375 2.625 0.375 5 1 C5.04241723 3.33294775 5.04092937 5.66702567 5 8 C4 9 4 9 1.5 9.125 C-1 9 -1 9 -2 8 C-2.1875 5.0625 -2.1875 5.0625 -2 2 C-1.34 1.34 -0.68 0.68 0 0 Z " fill="#F6F5F5" transform="translate(273,362)"/>
<path d="M0 0 C3.53571429 0.53571429 3.53571429 0.53571429 5 2 C5.125 5 5.125 5 5 8 C4 9 4 9 1.5 9.125 C-1 9 -1 9 -2 8 C-2.1875 5.0625 -2.1875 5.0625 -2 2 C-1.34 1.34 -0.68 0.68 0 0 Z " fill="#F9F9F9" transform="translate(289,362)"/>
<path d="M0 0 C0.66 0.33 1.32 0.66 2 1 C2 4.96 2 8.92 2 13 C0.02 13 -1.96 13 -4 13 C-3.40895235 8.15340923 -2.02055843 4.39251833 0 0 Z " fill="#EAEAEA" transform="translate(263,318)"/>
<path d="M0 0 C0.66 0 1.32 0 2 0 C1.56826496 6.15222436 0.34594658 9.81917949 -3 15 C-3.66 15 -4.32 15 -5 15 C-4.74322411 13.24788218 -4.46897047 11.49832064 -4.1875 9.75 C-4.03667969 8.77546875 -3.88585937 7.8009375 -3.73046875 6.796875 C-2.96101188 3.8507193 -2.08214678 2.20277494 0 0 Z " fill="#E5E4E4" transform="translate(295,313)"/>
<path d="M0 0 C0 1.98 0 3.96 0 6 C0.66 6 1.32 6 2 6 C2 6.66 2 7.32 2 8 C1.21625 7.814375 0.4325 7.62875 -0.375 7.4375 C-2.97089775 6.74037734 -2.97089775 6.74037734 -5 8 C-7.125 7.0625 -7.125 7.0625 -9 6 C-8.67 4.68 -8.34 3.36 -8 2 C-1.125 0 -1.125 0 0 0 Z " fill="#434040" transform="translate(192,365)"/>
<path d="M0 0 C0.66 0 1.32 0 2 0 C2 0.99 2 1.98 2 3 C3.32 3 4.64 3 6 3 C6 3.66 6 4.32 6 5 C4.68 5 3.36 5 2 5 C2 7.97 2 10.94 2 14 C3.32 14 4.64 14 6 14 C6 14.66 6 15.32 6 16 C4.33388095 16.042721 2.66617115 16.04063832 1 16 C0 15 0 15 -0.09765625 12.71484375 C-0.08025391 11.34005859 -0.08025391 11.34005859 -0.0625 9.9375 C-0.05347656 9.01839844 -0.04445312 8.09929687 -0.03515625 7.15234375 C-0.02355469 6.44207031 -0.01195312 5.73179687 0 5 C-0.66 5 -1.32 5 -2 5 C-2 4.34 -2 3.68 -2 3 C-1.34 3 -0.68 3 0 3 C0 2.01 0 1.02 0 0 Z " fill="#403D3D" transform="translate(210,357)"/>
<path d="M0 0 C3.09912803 0.21373297 3.99210353 0.99140679 6.125 3.3125 C9.82615541 8.61748942 10.21463851 11.56084476 10 18 C9.34 17.67 8.68 17.34 8 17 C7.54296875 15.109375 7.54296875 15.109375 7.1875 12.75 C6.27590514 8.16285465 4.65821172 6.01802467 1 3 C0.34 2.34 -0.32 1.68 -1 1 C-0.67 0.67 -0.34 0.34 0 0 Z " fill="#3D3A3B" transform="translate(217,309)"/>
<path d="M0 0 C0.33 0 0.66 0 1 0 C1 2.64 1 5.28 1 8 C3.31 8.33 5.62 8.66 8 9 C7.360625 9.2475 6.72125 9.495 6.0625 9.75 C3.81258459 10.81562433 3.81258459 10.81562433 3.25 13.125 C3.1675 13.74375 3.085 14.3625 3 15 C3.66 15 4.32 15 5 15 C5 15.66 5 16.32 5 17 C3.02 17 1.04 17 -1 17 C-0.67 11.39 -0.34 5.78 0 0 Z " fill="#656263" transform="translate(284,362)"/>
<path d="M0 0 C1.98 0 3.96 0 6 0 C6 4.29 6 8.58 6 13 C3.19438607 11.59719304 2.99319493 9.9490995 1.875 7.0625 C1.52179688 6.16660156 1.16859375 5.27070313 0.8046875 4.34765625 C0 2 0 2 0 0 Z " fill="#ED7702" transform="translate(242,203)"/>
<path d="M0 0 C1 2 1 2 -0.0625 5.5 C-1.46306098 8.64798987 -1.82603484 8.92154512 -5.1875 10.4375 C-6.115625 10.623125 -7.04375 10.80875 -8 11 C-7.42429187 7.11397015 -5.58424279 4.88827136 -3 2 C-2.01 1.34 -1.02 0.68 0 0 Z " fill="#EDEDED" transform="translate(188,336)"/>
<path d="M0 0 C9.03448276 -0.62068966 9.03448276 -0.62068966 12.625 1.6875 C14.21961817 4.36935783 14.34098943 5.93109509 14 9 C13.01 9 12.02 9 11 9 C10.67 7.02 10.34 5.04 10 3 C8.02 3.33 6.04 3.66 4 4 C3.67 3.01 3.34 2.02 3 1 C2.01 0.67 1.02 0.34 0 0 Z " fill="#5F5C5D" transform="translate(267,360)"/>
<path d="M0 0 C0 0.33 0 0.66 0 1 C-1.546875 1.3403125 -1.546875 1.3403125 -3.125 1.6875 C-7.34408258 2.86471856 -9.81536784 5.04838971 -13 8 C-13 5.69 -13 3.38 -13 1 C-8.60563789 0.14256349 -4.47427924 -0.08948558 0 0 Z " fill="#E9AD73" transform="translate(296,218)"/>
<path d="M0 0 C0.99 0 1.98 0 3 0 C3 3.3 3 6.6 3 10 C3.66 10 4.32 10 5 10 C5 10.66 5 11.32 5 12 C3.02 12 1.04 12 -1 12 C-1 11.34 -1 10.68 -1 10 C-0.34 10 0.32 10 1 10 C0.67 6.7 0.34 3.4 0 0 Z " fill="#3F3B3C" transform="translate(299,361)"/>
<path d="M0 0 C0.99 0 1.98 0 3 0 C3 3.3 3 6.6 3 10 C3.66 10 4.32 10 5 10 C5 10.66 5 11.32 5 12 C3.02 12 1.04 12 -1 12 C-1 11.34 -1 10.68 -1 10 C-0.34 10 0.32 10 1 10 C0.67 6.7 0.34 3.4 0 0 Z " fill="#3F3B3C" transform="translate(260,361)"/>
<path d="M0 0 C2.475 0.495 2.475 0.495 5 1 C5 4.63 5 8.26 5 12 C3.35 12 1.7 12 0 12 C0 11.34 0 10.68 0 10 C0.66 10 1.32 10 2 10 C2 7.03 2 4.06 2 1 C1.34 0.67 0.68 0.34 0 0 Z " fill="#322E2F" transform="translate(306,361)"/>
<path d="M0 0 C1.2684375 0.0309375 1.2684375 0.0309375 2.5625 0.0625 C3.2225 0.0625 3.8825 0.0625 4.5625 0.0625 C5.8825 0.0625 7.2025 0.0625 8.5625 0.0625 C8.5625 0.7225 8.5625 1.3825 8.5625 2.0625 C4.66685434 3.95467075 2.72044989 3.93785787 -1.4375 3.0625 C-2.4275 3.7225 -3.4175 4.3825 -4.4375 5.0625 C-3.31353993 0.08496256 -3.31353993 0.08496256 0 0 Z " fill="#494546" transform="translate(327.4375,359.9375)"/>
<path d="M0 0 C1.32 0 2.64 0 4 0 C4 1.65 4 3.3 4 5 C3.34 5 2.68 5 2 5 C1.67 5.66 1.34 6.32 1 7 C-1.475 6.01 -1.475 6.01 -4 5 C-3.67 4.01 -3.34 3.02 -3 2 C-1.35 2.33 0.3 2.66 2 3 C2.33 2.34 2.66 1.68 3 1 C2.01 0.67 1.02 0.34 0 0 Z " fill="#D6D5D6" transform="translate(202,360)"/>
<path d="M0 0 C1.45047396 2.90094791 0.45356803 4.55972596 -0.4375 7.625 C-0.72496094 8.62789063 -1.01242188 9.63078125 -1.30859375 10.6640625 C-1.65083984 11.82035156 -1.65083984 11.82035156 -2 13 C-2.33 13 -2.66 13 -3 13 C-3 11.35 -3 9.7 -3 8 C-3.66 8 -4.32 8 -5 8 C-5.33 8.66 -5.66 9.32 -6 10 C-6 9.01 -6 8.02 -6 7 C-5.34 7 -4.68 7 -4 7 C-3.896875 6.401875 -3.79375 5.80375 -3.6875 5.1875 C-2.91123545 2.71756736 -1.92911079 1.67748765 0 0 Z " fill="#A9A7A8" transform="translate(256,324)"/>
<path d="M0 0 C2.33944736 0.28730055 4.6739143 0.61936779 7 1 C6.67 1.99 6.34 2.98 6 4 C4.35 3.67 2.7 3.34 1 3 C1 3.66 1 4.32 1 5 C1.66 5.66 2.32 6.32 3 7 C1.35 6.67 -0.3 6.34 -2 6 C-1.125 1.125 -1.125 1.125 0 0 Z " fill="#3C3839" transform="translate(198,360)"/>
<path d="M0 0 C0 0.33 0 0.66 0 1 C-1.98 1.33 -3.96 1.66 -6 2 C-6.33 2.99 -6.66 3.98 -7 5 C-5.68 5.66 -4.36 6.32 -3 7 C-4.66611905 7.042721 -6.33382885 7.04063832 -8 7 C-9 6 -9 6 -9.0625 3.4375 C-9.041875 2.633125 -9.02125 1.82875 -9 1 C-6.04335481 -0.4783226 -3.25770263 -0.06032783 0 0 Z " fill="#312D2E" transform="translate(190,366)"/>
<path d="M0 0 C0.99 0.33 1.98 0.66 3 1 C3.29296875 7.0546875 3.29296875 7.0546875 3 9 C0 11 0 11 -2.1875 10.625 C-2.785625 10.41875 -3.38375 10.2125 -4 10 C-2.68 9.34 -1.36 8.68 0 8 C0 5.36 0 2.72 0 0 Z " fill="#3A3637" transform="translate(293,362)"/>
<path d="M0 0 C0.33 0.99 0.66 1.98 1 3 C-0.21484375 5.04296875 -0.21484375 5.04296875 -1.9375 7.1875 C-2.50339844 7.90292969 -3.06929687 8.61835938 -3.65234375 9.35546875 C-4.09707031 9.89816406 -4.54179687 10.44085938 -5 11 C-5.99 10.34 -6.98 9.68 -8 9 C-6.68 8.67 -5.36 8.34 -4 8 C-3.855625 7.401875 -3.71125 6.80375 -3.5625 6.1875 C-3.1127561 4.43849596 -2.57107659 2.71322977 -2 1 C-1.34 0.67 -0.68 0.34 0 0 Z " fill="#4C4949" transform="translate(190,337)"/>
<path d="M0 0 C0.66 0 1.32 0 2 0 C2.33 1.32 2.66 2.64 3 4 C4.65 4.33 6.3 4.66 8 5 C4.91190305 6.76462683 3.76687864 7 0 7 C0 4.69 0 2.38 0 0 Z " fill="#3F3C3D" transform="translate(227,366)"/>
<path d="M0 0 C0.99 0.33 1.98 0.66 3 1 C1.9375 2.5 1.9375 2.5 0 4 C-3.6875 4.1875 -3.6875 4.1875 -7 4 C-7.33 3.01 -7.66 2.02 -8 1 C-6.865625 1.020625 -5.73125 1.04125 -4.5625 1.0625 C-1.18424326 1.41577477 -1.18424326 1.41577477 0 0 Z " fill="#4A4747" transform="translate(331,375)"/>
<path d="M0 0 C1.98 0 3.96 0 6 0 C6 0.99 6 1.98 6 3 C3.69 3.33 1.38 3.66 -1 4 C-0.67 2.68 -0.34 1.36 0 0 Z " fill="#E6E5E5" transform="translate(184,367)"/>
<path d="M0 0 C0.33 1.32 0.66 2.64 1 4 C2.32 4.33 3.64 4.66 5 5 C4 6 4 6 0.9375 6.0625 C-0.5165625 6.0315625 -0.5165625 6.0315625 -2 6 C-2 4.35 -2 2.7 -2 1 C-1.34 0.67 -0.68 0.34 0 0 Z " fill="#2B2728" transform="translate(179,343)"/>
<path d="M0 0 C-0.33 2.97 -0.66 5.94 -1 9 C-1.99 8.34 -2.98 7.68 -4 7 C-3.625 4.0625 -3.625 4.0625 -3 1 C-1 0 -1 0 0 0 Z " fill="#363233" transform="translate(292,316)"/>
<path d="M0 0 C1.98 0.495 1.98 0.495 4 1 C3.67 2.32 3.34 3.64 3 5 C1.68 4.67 0.36 4.34 -1 4 C-0.67 2.68 -0.34 1.36 0 0 Z " fill="#3F3B3C" transform="translate(239,271)"/>
<path d="M0 0 C1.98 0.495 1.98 0.495 4 1 C3.34 2.32 2.68 3.64 2 5 C1.01 4.67 0.02 4.34 -1 4 C-0.67 2.68 -0.34 1.36 0 0 Z " fill="#373334" transform="translate(314,271)"/>
<path d="M0 0 C2.31 0 4.62 0 7 0 C7 0.99 7 1.98 7 3 C4.625 3.1875 4.625 3.1875 2 3 C1.34 2.01 0.68 1.02 0 0 Z " fill="#EDECEC" transform="translate(196,368)"/>
<path d="M0 0 C0.66 0 1.32 0 2 0 C2 0.99 2 1.98 2 3 C1.34 3 0.68 3 0 3 C-0.66 4.65 -1.32 6.3 -2 8 C-2.66 7.34 -3.32 6.68 -4 6 C-2.7260411 3.96166576 -1.38938077 1.96147874 0 0 Z " fill="#5C595A" transform="translate(248,334)"/>
<path d="M0 0 C0.33 0 0.66 0 1 0 C1.125 2.875 1.125 2.875 1 6 C-1 8 -1 8 -3.625 8.125 C-4.40875 8.08375 -5.1925 8.0425 -6 8 C-4.7934375 7.13375 -4.7934375 7.13375 -3.5625 6.25 C-1.02133261 4.01873107 -0.34879632 3.25543229 0 0 Z " fill="#322F2F" transform="translate(279,365)"/>
<path d="M0 0 C3.3 0 6.6 0 10 0 C10 0.99 10 1.98 10 3 C6.7 2.34 3.4 1.68 0 1 C0 0.67 0 0.34 0 0 Z " fill="#595657" transform="translate(306,360)"/>
<path d="M0 0 C3.3 0 6.6 0 10 0 C10 0.99 10 1.98 10 3 C6.7 2.34 3.4 1.68 0 1 C0 0.67 0 0.34 0 0 Z " fill="#5E5B5C" transform="translate(283,360)"/>
</svg>
